<svg xmlns="http://www.w3.org/2000/svg" width="99" height="99" viewBox="0 0 99 99">
  <defs>
    <style>
      .cls-1 {
        fill: #0070d1;
      }

      .cls-2 {
        fill: #fff;
      }

      .cls-3 {
        fill: none;
        stroke: #fff;
        stroke-linecap: round;
        stroke-linejoin: round;
        stroke-width: 2px;
      }
    </style>
  </defs>
  <title>S_IlluAutotone_99_N</title>
  <g id="circles">
    <circle id="Ellipse_22" data-name="Ellipse 22" class="cls-1" cx="49.5" cy="49.5" r="49.5"/>
  </g>
  <g id="flat_outline" data-name="flat / outline">
    <path class="cls-2" d="M77.287,73.9H22.713A2.216,2.216,0,0,1,20.5,71.682V36.375a2.216,2.216,0,0,1,2.213-2.213H36.754a1,1,0,0,1,0,2H22.713a.213.213,0,0,0-.213.213V71.682a.214.214,0,0,0,.213.213H77.287a.214.214,0,0,0,.213-.213V36.375a.213.213,0,0,0-.213-.213H47.993a1,1,0,0,1,0-2H77.287A2.216,2.216,0,0,1,79.5,36.375V71.682A2.216,2.216,0,0,1,77.287,73.9Z"/>
    <path class="cls-2" d="M66.775,51.46h-.069a5.79,5.79,0,0,1-3.979-9.933,5.928,5.928,0,0,1,4.114-1.647,5.79,5.79,0,0,1-.066,11.58Zm0-9.581a3.791,3.791,0,0,0-.047,7.581.4.4,0,0,1,.05,0,3.79,3.79,0,0,0,.043-7.58Z"/>
    <path class="cls-2" d="M75.625,69.061a1,1,0,0,1-.713-.3L62.874,56.52a.984.984,0,0,0-1.369.012l-4.015,4.25a1,1,0,1,1-1.453-1.373l4.046-4.283a2.988,2.988,0,0,1,4.2-.023L76.338,67.359a1,1,0,0,1-.713,1.7Z"/>
    <path class="cls-2" d="M62.526,70.876a1,1,0,0,1-.711-.3L43.726,52.317a.593.593,0,0,0-.84,0L24.564,70.377a1,1,0,1,1-1.4-1.423L41.474,50.9a2.588,2.588,0,0,1,3.654-.007L63.237,69.173a1,1,0,0,1-.711,1.7Z"/>
    <path class="cls-2" d="M34.345,23.317a1,1,0,0,1-1-1V19.105a1,1,0,0,1,2,0v3.212A1,1,0,0,1,34.345,23.317Z"/>
    <path class="cls-2" d="M34.345,31.345a1,1,0,0,1-1-1V27.134a1,1,0,0,1,2,0v3.211A1,1,0,0,1,34.345,31.345Z"/>
    <path class="cls-2" d="M31.937,25.726H28.726a1,1,0,0,1,0-2h3.211a1,1,0,0,1,0,2Z"/>
    <path class="cls-2" d="M39.965,25.726H36.754a1,1,0,0,1,0-2h3.211a1,1,0,0,1,0,2Z"/>
    <g>
      <line id="Line_29-2" data-name="Line 29-2" class="cls-3" x1="52.007" y1="41.585" x2="52.007" y2="44.194"/>
      <line id="Line_31" data-name="Line 31" class="cls-3" x1="52.007" y1="48.525" x2="52.007" y2="51.218"/>
      <line id="Line_30-2" data-name="Line 30-2" class="cls-3" x1="47.19" y1="46.401" x2="49.856" y2="46.401"/>
      <line id="Line_32-3" data-name="Line 32-3" class="cls-3" x1="54.165" y1="46.401" x2="56.824" y2="46.401"/>
    </g>
    <path class="cls-2" d="M55.414,22.1l-2.285-1.993a.753.753,0,0,0-1.059.073L29.354,46.229a.751.751,0,0,0,.073,1.059l2.285,1.992a.754.754,0,0,0,.493.185l.051,0a.748.748,0,0,0,.515-.255L55.486,23.157A.749.749,0,0,0,55.414,22.1ZM37.075,41.989l-1.154-1.007L52.708,21.73l1.154,1.007Z"/>
  </g>
</svg>
