<svg xmlns="http://www.w3.org/2000/svg" width="99" height="99" viewBox="0 0 99 99">
  <defs>
    <style>
      .cls-1 {
        fill: #0070d1;
      }

      .cls-2 {
        fill: #fff;
      }
    </style>
  </defs>
  <title>S_IlluImageCutOut_99_N</title>
  <g id="circles">
    <circle id="Ellipse_22" data-name="Ellipse 22" class="cls-1" cx="49.5" cy="49.5" r="49.5"/>
  </g>
  <g id="flat_outline" data-name="flat / outline">
    <path class="cls-2" d="M76.162,75.205a1.833,1.833,0,0,1-.723-.15l-7.447-3.216A1,1,0,1,1,68.785,70L76,73.118V39.344a.665.665,0,0,0-.409-.613L28,18.848V22a1,1,0,0,1-2,0V18.6a1.833,1.833,0,0,1,1.833-1.833h0a1.806,1.806,0,0,1,.705.143L76.363,36.886A2.661,2.661,0,0,1,78,39.342v34.03a1.834,1.834,0,0,1-1.831,1.833Z"/>
    <path class="cls-2" d="M27,53a1,1,0,0,1-1-1V44a1,1,0,0,1,2,0v8A1,1,0,0,1,27,53Z"/>
    <path class="cls-2" d="M64.934,55.387a5.446,5.446,0,0,1-2.161-.481l-.058-.028a10.1,10.1,0,0,1-5.471-8.62A4.911,4.911,0,0,1,59.228,42a4.5,4.5,0,0,1,4.363-.162,10.117,10.117,0,0,1,5.528,8.647,4.913,4.913,0,0,1-1.983,4.265A3.972,3.972,0,0,1,64.934,55.387Zm-1.335-2.3a2.567,2.567,0,0,0,2.442-.013,2.959,2.959,0,0,0,1.078-2.558,8.084,8.084,0,0,0-4.383-6.874,2.544,2.544,0,0,0-2.412.029,2.958,2.958,0,0,0-1.08,2.558A8.08,8.08,0,0,0,63.6,53.084Z"/>
    <path class="cls-2" d="M68.25,79.016a.992.992,0,0,1-.388-.078L52.784,72.59a1,1,0,1,1,.777-1.844L65.7,75.857,56.6,61.5a1.53,1.53,0,0,0-1.07-.8l-5.868,5.063a1,1,0,1,1-1.307-1.515L54.3,59.126a2.132,2.132,0,0,1,1.715-.373,3.673,3.673,0,0,1,2.275,1.675L69.1,77.481a1,1,0,0,1-.845,1.535Z"/>
    <path class="cls-2" d="M53.165,79.337a1,1,0,0,1-.4-.084L18.072,64.063a1,1,0,0,1-.161-1.743l16.43-11.18a1.914,1.914,0,0,1,1.48-.285,3.133,3.133,0,0,1,1.956,1.457L54.008,77.8a1,1,0,0,1-.843,1.537ZM20.529,62.956,50.557,76.1,36.089,53.385a1.154,1.154,0,0,0-.684-.571Z"/>
    <path class="cls-2" d="M33.918,43.34a3.531,3.531,0,0,1-1.438-.318h0L20.86,37.833a4.765,4.765,0,0,1-2.7-4.3A2.933,2.933,0,0,1,19.4,31.1a2.167,2.167,0,0,1,.7-.3,3.412,3.412,0,0,1,1.433-2.853,3.177,3.177,0,0,1,3.106-.1l.139.066a3.613,3.613,0,0,1,1.526-1.491,3.714,3.714,0,0,1,3.275.117,8.142,8.142,0,0,1,4.151,7.01c0,.066,0,.131,0,.2a8.416,8.416,0,0,1,3.086,5.845c0,2.016-.75,2.91-1.381,3.321A2.769,2.769,0,0,1,33.918,43.34ZM33.3,41.2a1.2,1.2,0,0,0,1.048.037c.3-.194.473-.763.473-1.559A6.4,6.4,0,0,0,32.1,35.023a1,1,0,0,1-.412-.987,2.947,2.947,0,0,0,.042-.487,6.1,6.1,0,0,0-3.061-5.23,1.768,1.768,0,0,0-1.481-.1,2.2,2.2,0,0,0-.956,1.4,1,1,0,0,1-1.6.553,3.978,3.978,0,0,0-.819-.5,1.291,1.291,0,0,0-1.194-.048,1.549,1.549,0,0,0-.524,1.325,3.141,3.141,0,0,0,.1.748,1,1,0,0,1-1.441,1.13l-.1-.057a.149.149,0,0,0-.171.006.979.979,0,0,0-.329.755,2.764,2.764,0,0,0,1.552,2.493Z"/>
  </g>
</svg>
