<svg xmlns="http://www.w3.org/2000/svg" width="99" height="99" viewBox="0 0 99 99">
  <defs>
    <style>
      .cls-1 {
        fill: #0070d1;
      }

      .cls-2, .cls-3 {
        fill: #fff;
      }

      .cls-3 {
        opacity: 0.7;
      }
    </style>
  </defs>
  <title>S_IlluFilters_99_N</title>
  <g id="circles">
    <circle id="Ellipse_22" data-name="Ellipse 22" class="cls-1" cx="49.5" cy="49.5" r="49.5"/>
  </g>
  <g id="flat_outline" data-name="flat / outline">
    <path class="cls-2" d="M34.226,65.658a19,19,0,1,1,19-19A19.026,19.026,0,0,1,34.226,65.658Zm0-36.009a17,17,0,1,0,17,17.005A17.024,17.024,0,0,0,34.226,29.649Z"/>
    <path class="cls-2" d="M45,36.632a.687.687,0,0,0-.482.841h0a.687.687,0,1,0,1.347-.269.85.85,0,0,0-.025-.09h0A.686.686,0,0,0,45,36.632Zm-2.8-1.6a.687.687,0,1,0,.842.484v0A.687.687,0,0,0,42.194,35.027Zm-1.605,2.8a.687.687,0,0,0-.482.841h0a.687.687,0,1,0,1.347-.269c-.007-.03-.015-.06-.025-.09h0A.687.687,0,0,0,40.589,37.828Zm-1.2-4.406a.686.686,0,1,0,.842.484v0A.687.687,0,0,0,39.391,33.422Zm8.178,12a.685.685,0,1,1-.686.685A.685.685,0,0,1,47.569,45.421Zm-1.2-4.406a.685.685,0,1,1-.685.685A.685.685,0,0,1,46.372,41.015Zm-1.785,2.827a.686.686,0,1,0,.842.484v0A.686.686,0,0,0,44.587,43.842Zm4.406-1.2a.687.687,0,0,0,.261,1.348.678.678,0,0,0,.1-.027.668.668,0,0,0,.429-.36c-.054-.274-.116-.549-.187-.823A.677.677,0,0,0,48.993,42.643Zm-5.6-3.21a.687.687,0,1,0,.841.485v0A.687.687,0,0,0,43.391,39.433Zm-.409,7.208a.687.687,0,1,0,.842.485v0A.687.687,0,0,0,42.982,46.641Zm-1.2-4.406a.687.687,0,1,0,.842.484v0A.687.687,0,0,0,41.785,42.235Zm6.8,7.616a.687.687,0,1,0,.842.484v0A.687.687,0,0,0,48.585,49.851Zm-1.605,2.8a.686.686,0,1,0,.842.484v0A.687.687,0,0,0,46.98,52.654Zm-1.2-4.407a.686.686,0,1,0,.842.483v0A.687.687,0,0,0,45.783,48.247Zm-.407,7.207a.686.686,0,0,0-.481.841h0a.686.686,0,1,0,1.346-.269.6.6,0,0,0-.025-.09h0A.686.686,0,0,0,45.376,55.454Zm-1.2-4.406a.687.687,0,1,0,.841.484v0A.686.686,0,0,0,44.179,51.048ZM29.792,31.438c-.125.037-.25.072-.369.112-.142.043-.28.092-.419.141a.674.674,0,0,0-.1.561h0a.687.687,0,0,0,1.347-.268.941.941,0,0,0-.025-.091h0A.671.671,0,0,0,29.792,31.438Zm6.39,7.588a.686.686,0,0,0-.481.84h0a.686.686,0,0,0,1.322-.36h0A.686.686,0,0,0,36.182,39.026Zm-1.2-4.408a.687.687,0,1,0,.841.484v0A.687.687,0,0,0,34.985,34.618Zm-1.607,2.8a.686.686,0,1,0,.842.484v0A.687.687,0,0,0,33.378,37.42Zm4.409-1.2a.686.686,0,1,0,.841.484v0A.686.686,0,0,0,37.787,36.224Zm-5.6-3.21a.686.686,0,1,0,.842.483v0A.686.686,0,0,0,32.183,33.014Zm4.406-1.2a.686.686,0,1,0,.842.484v0A.686.686,0,0,0,36.589,31.818Zm-4.814,8.4a.687.687,0,0,0-.481.841h0a.686.686,0,1,0,1.346-.269.661.661,0,0,0-.024-.09h0A.687.687,0,0,0,31.775,40.222Zm-1.193-4.407a.686.686,0,1,0,.841.484v0A.685.685,0,0,0,30.582,35.815Zm8.173,12a.685.685,0,1,1-.685.685A.685.685,0,0,1,38.755,47.815Zm-1.2-4.407a.685.685,0,1,1-.685.685A.685.685,0,0,1,37.558,43.408Zm-1.784,2.823a.686.686,0,1,0,.842.484v0A.687.687,0,0,0,35.774,46.231Zm4.406-1.193a.686.686,0,1,0,.842.484v0A.686.686,0,0,0,40.18,45.038Zm-5.6-3.211a.687.687,0,1,0,.842.484v0A.687.687,0,0,0,34.577,41.827Zm4.408-1.2a.687.687,0,1,0,.841.484v0A.686.686,0,0,0,38.985,40.63Zm-4.817,8.4a.687.687,0,1,0,.841.484v0A.687.687,0,0,0,34.168,49.035Zm-1.2-4.407a.686.686,0,1,0,.841.485v0A.687.687,0,0,0,32.971,44.628Zm8,12.024a.686.686,0,0,0-.482.84h0a.687.687,0,0,0,1.347-.268.941.941,0,0,0-.025-.091h0A.686.686,0,0,0,40.969,56.652Zm-1.2-4.407a.686.686,0,1,0,.842.483v0A.686.686,0,0,0,39.772,52.245Zm-1.6,2.8a.686.686,0,1,0,.841.485v0A.686.686,0,0,0,38.167,55.047Zm4.406-1.2a.687.687,0,1,0,.841.485v0A.686.686,0,0,0,42.573,53.85Zm-5.6-3.209a.686.686,0,1,0,.842.484v0A.687.687,0,0,0,36.97,50.641Zm4.406-1.2a.687.687,0,1,0,.842.484v0A.687.687,0,0,0,41.376,49.443Zm-4.813,8.405a.686.686,0,0,0-.482.841h0a.686.686,0,1,0,1.346-.269.749.749,0,0,0-.024-.09h0A.687.687,0,0,0,36.563,57.848Zm-1.2-4.407a.687.687,0,1,0,.841.485v0A.687.687,0,0,0,35.366,53.441Zm4,6.012a.687.687,0,1,0,.842.485v0A.687.687,0,0,0,39.364,59.453ZM27.369,41.419a.686.686,0,0,0-.482.841h0a.687.687,0,0,0,1.345-.278.574.574,0,0,0-.023-.081h0A.685.685,0,0,0,27.369,41.419Zm-1.2-4.407a.687.687,0,1,0,.842.484v0A.687.687,0,0,0,26.172,37.012Zm-1.605,2.8a.686.686,0,1,0,.841.484v0A.685.685,0,0,0,24.567,39.814Zm4.406-1.2a.687.687,0,1,0,.842.484v0A.687.687,0,0,0,28.973,38.617Zm-5.6-3.21a.687.687,0,1,0,.841.485v0A.687.687,0,0,0,23.371,35.407Zm4.406-1.2a.686.686,0,1,0,.842.484v0A.687.687,0,0,0,27.777,34.211Zm-4.815,8.406a.687.687,0,0,0-.482.84h0a.687.687,0,0,0,1.347-.268A.941.941,0,0,0,23.8,43.1h0A.686.686,0,0,0,22.962,42.617Zm-1.2-4.409a.687.687,0,1,0,.842.484v0A.687.687,0,0,0,21.765,38.208Zm8.177,12a.685.685,0,1,1-.685.685A.685.685,0,0,1,29.942,50.208Zm-1.2-4.407a.686.686,0,1,1-.685.686A.686.686,0,0,1,28.745,45.8ZM26.96,48.628a.686.686,0,1,0,.842.484v0A.686.686,0,0,0,26.96,48.628Zm4.408-1.2a.686.686,0,1,0,.841.485v0A.687.687,0,0,0,31.368,47.43Zm-5.6-3.21a.686.686,0,1,0,.842.484v0A.687.687,0,0,0,25.763,44.22Zm4.407-1.2a.686.686,0,1,0,.842.483v0A.687.687,0,0,0,30.17,43.025Zm-4.815,8.4a.686.686,0,1,0,.841.485v0A.687.687,0,0,0,25.355,51.428Zm-1.2-4.407a.687.687,0,1,0,.841.485v0A.686.686,0,0,0,24.159,47.021Zm8,12.024a.687.687,0,0,0-.481.841h0a.687.687,0,0,0,1.344-.281.776.776,0,0,0-.022-.079h0A.687.687,0,0,0,32.154,59.045Zm-1.2-4.407a.687.687,0,1,0,.842.484v0A.687.687,0,0,0,30.958,54.638Zm-1.6,2.8a.686.686,0,1,0,.841.484v0A.685.685,0,0,0,29.354,57.441Zm4.406-1.2a.687.687,0,1,0,.841.484v0A.686.686,0,0,0,33.76,56.243Zm-5.6-3.21a.687.687,0,1,0,.841.485v0A.687.687,0,0,0,28.157,53.033Zm4.4-1.2a.687.687,0,1,0,.842.484v0A.687.687,0,0,0,32.562,51.837Zm-4.814,8.4a.675.675,0,0,0-.494.648c.087.042.173.084.261.125.166.078.335.152.5.224.125.052.246.108.37.157a.678.678,0,0,0,.2-.674h0A.687.687,0,0,0,27.748,60.242Zm-1.2-4.408a.687.687,0,1,0,.842.485v0A.688.688,0,0,0,26.552,55.834Zm8.405,4.815a.687.687,0,1,0,.842.485v0A.687.687,0,0,0,34.957,60.649ZM18.626,43.808c-.044.241-.084.483-.116.726-.025.184-.043.368-.063.553a.677.677,0,0,0,.466.048.686.686,0,0,0,.481-.84h0A.677.677,0,0,0,18.626,43.808Zm1.534-2.8A.686.686,0,1,0,21,41.5v0A.687.687,0,0,0,20.16,41.011Zm.969,11.59a.686.686,0,1,1-.685.686A.686.686,0,0,1,21.129,52.6Zm-1.2-4.406a.685.685,0,1,1-.685.685A.685.685,0,0,1,19.932,48.2Zm2.622,1.629a.686.686,0,1,0,.841.485v0A.686.686,0,0,0,22.554,49.824Zm-1.2-4.409a.686.686,0,1,0,.841.484v0A.687.687,0,0,0,21.357,45.415Zm3.59,13.222a.678.678,0,0,0-.48.512c.327.256.665.495,1.011.723a.677.677,0,0,0,.312-.755A.686.686,0,0,0,24.947,58.637Zm-1.2-4.406a.686.686,0,1,0,.841.485v0A.686.686,0,0,0,23.751,54.231Z"/>
    <path id="Path_157" data-name="Path 157" class="cls-3" d="M40.366,66.97c.079.442.174.885.294,1.328A15.049,15.049,0,1,0,69.2,58.905c-1.172-3.028-5.847-9.58-13.911-9.6C54.9,52.4,52.271,63.376,40.366,66.97Z"/>
    <path class="cls-2" d="M55.237,83.458a19.093,19.093,0,0,1-10.044-2.849,18.894,18.894,0,0,1-8.619-12.395,1,1,0,0,1,1.959-.4A17.009,17.009,0,1,0,71.649,60.1l-.054-.2c-.117-.428-.25-.853-.4-1.267a.912.912,0,0,1-.077-.164A16.426,16.426,0,0,0,68.2,53.405a17.1,17.1,0,0,0-12.186-6.039,1,1,0,0,1-.95-1.048,1.018,1.018,0,0,1,1.048-.949,19.1,19.1,0,0,1,13.617,6.746,18.446,18.446,0,0,1,3.211,5.507.983.983,0,0,1,.077.16c.19.519.36,1.053.506,1.59l.059.215A18.983,18.983,0,0,1,55.237,83.458Z"/>
    <path class="cls-2" d="M59,25a1,1,0,0,1-1-1V13a1,1,0,0,1,2,0V24A1,1,0,0,1,59,25Z"/>
    <path class="cls-2" d="M59,42a1,1,0,0,1-1-1V38a1,1,0,0,1,2,0v3A1,1,0,0,1,59,42Z"/>
    <path class="cls-2" d="M58.964,35.572A4.536,4.536,0,1,1,63.5,31.036,4.541,4.541,0,0,1,58.964,35.572Zm0-7.072A2.536,2.536,0,1,0,61.5,31.036,2.539,2.539,0,0,0,58.964,28.5Z"/>
    <path class="cls-2" d="M70,42a1,1,0,0,1-1-1V29a1,1,0,0,1,2,0V41A1,1,0,0,1,70,42Z"/>
    <path class="cls-2" d="M70,16a1,1,0,0,1-1-1V13a1,1,0,0,1,2,0v2A1,1,0,0,1,70,16Z"/>
    <path class="cls-2" d="M69.964,26.572A4.536,4.536,0,1,1,74.5,22.036,4.541,4.541,0,0,1,69.964,26.572Zm0-7.072A2.536,2.536,0,1,0,72.5,22.036,2.539,2.539,0,0,0,69.964,19.5Z"/>
  </g>
</svg>
