<svg id="Layer_1" data-name="Layer 1" xmlns="http://www.w3.org/2000/svg" viewBox="0 0 99 99">
  <defs>
    <style>
      .cls-1 {
        fill: #0070d1;
      }

      .cls-2 {
        fill: #fff;
      }
    </style>
  </defs>
  <circle class="cls-1" cx="49.5" cy="49.5" r="49.5"/>
  <g>
    <g>
      <path class="cls-2" d="M80.2,48.9H54.41a.19449.19449,0,0,0-.08.01,6.49623,6.49623,0,0,0-6.32,6.5V76.47H38.78a.9965.9965,0,0,0-1,1v3.67a6.51267,6.51267,0,0,0,6.5,6.5H67.86a5.29491,5.29491,0,0,0,.9.06995,6.50623,6.50623,0,0,0,6.5-6.5V61.05H85.85a.99651.99651,0,0,0,1-1V55.48A6.74552,6.74552,0,0,0,80.2,48.9ZM44.28,85.64a4.50676,4.50676,0,0,1-4.5-4.5V78.47H62.83v2.74A6.83467,6.83467,0,0,0,64.31,85.64ZM73.26,55.48v4.37a1.22974,1.22974,0,0,0-.02.2,1.24713,1.24713,0,0,0,.02.21V81.21a4.50376,4.50376,0,0,1-4,4.47h-.01a3.90383,3.90383,0,0,1-.49.03,3.67182,3.67182,0,0,1-.75-.06995c-2.18-.38-3.18-2.47-3.18-4.43005V77.54a.93985.93985,0,0,0-.23-.63.64571.64571,0,0,0-.08-.09.95961.95961,0,0,0-.75-.35H50.01V55.41a4.50849,4.50849,0,0,1,4.4-4.51H75.3A6.40952,6.40952,0,0,0,73.26,55.48Zm11.59,3.57H75.26V55.48a4.91584,4.91584,0,0,1,4.87-4.58h.03a4.77735,4.77735,0,0,1,4.69,4.58Z"/>
      <path class="cls-2" d="M69.25,85.68a3.90383,3.90383,0,0,1-.49.03,3.67182,3.67182,0,0,1-.75-.06995h.97A.80241.80241,0,0,1,69.25,85.68Z"/>
    </g>
    <g>
      <g id="document_image_lg" data-name="document image lg">
        <g id="document_image_lg-2" data-name="document image lg">
          <path class="cls-2" d="M43.79639,60.47266H33.42383a4.23892,4.23892,0,0,1-4.23389-4.23438V28.793a4.23882,4.23882,0,0,1,4.23389-4.23389H49.23877a4.52938,4.52938,0,0,1,3.22412,1.33643L57.20605,30.644a4.52722,4.52722,0,0,1,1.333,3.22022V45.35693a1,1,0,0,1-2,0V33.86426a2.54,2.54,0,0,0-.748-1.80713l-4.74219-4.748a2.54628,2.54628,0,0,0-1.81006-.75H33.42383A2.23621,2.23621,0,0,0,31.18994,28.793V56.23828a2.23631,2.23631,0,0,0,2.23389,2.23438H43.79639a1,1,0,0,1,0,2Z"/>
        </g>
      </g>
      <path class="cls-2" d="M25.63916,56.72559a.99974.99974,0,0,1-1-1V24.54834a4.17442,4.17442,0,0,1,4.16943-4.16943H47.16553a1,1,0,0,1,0,2H28.80859a2.17181,2.17181,0,0,0-2.16943,2.16943V55.72559A.99974.99974,0,0,1,25.63916,56.72559Z"/>
      <path class="cls-2" d="M21.04932,53.24316a.99973.99973,0,0,1-1-1V21.00732a5.22407,5.22407,0,0,1,5.21826-5.21826H43.84131a1,1,0,0,1,0,2H25.26758a3.22208,3.22208,0,0,0-3.21826,3.21826V52.24316A.99974.99974,0,0,1,21.04932,53.24316Z"/>
    </g>
  </g>
  <g id="crosshair_sm" data-name="crosshair sm">
    <g id="crosshair_sm-2" data-name="crosshair sm">
      <path class="cls-2" d="M64.84961,19.72021a.75019.75019,0,0,1-.75-.75V14.49072a.75.75,0,1,1,1.5,0v4.47949A.75019.75019,0,0,1,64.84961,19.72021Z"/>
      <path class="cls-2" d="M64.84961,28.30811a.7502.7502,0,0,1-.75-.75v-4.48a.75.75,0,0,1,1.5,0v4.48A.7502.7502,0,0,1,64.84961,28.30811Z"/>
      <path class="cls-2" d="M62.7959,21.77441H58.31641a.75.75,0,0,1,0-1.5H62.7959a.75.75,0,0,1,0,1.5Z"/>
      <path class="cls-2" d="M71.38379,21.77441H66.9043a.75.75,0,0,1,0-1.5h4.47949a.75.75,0,0,1,0,1.5Z"/>
    </g>
  </g>
  <g id="crosshair_sm-3" data-name="crosshair sm">
    <g id="crosshair_sm-4" data-name="crosshair sm">
      <path class="cls-2" d="M25.77832,70.05957a.7502.7502,0,0,1-.75-.75v-3a.75.75,0,0,1,1.5,0v3A.7502.7502,0,0,1,25.77832,70.05957Z"/>
      <path class="cls-2" d="M25.77832,77.48438a.7502.7502,0,0,1-.75-.75v-3a.75.75,0,0,1,1.5,0v3A.7502.7502,0,0,1,25.77832,77.48438Z"/>
      <path class="cls-2" d="M23.56592,72.27148h-3a.75.75,0,0,1,0-1.5h3a.75.75,0,1,1,0,1.5Z"/>
      <path class="cls-2" d="M30.99121,72.27246h0l-3-.001a.75.75,0,1,1,0-1.5h0l3,.001a.75.75,0,0,1,0,1.5Z"/>
    </g>
  </g>
</svg>
