<svg xmlns="http://www.w3.org/2000/svg" width="99" height="99" viewBox="0 0 99 99">
  <defs>
    <style>
      .cls-1 {
        fill: #0070d1;
      }

      .cls-2 {
        fill: #fff;
      }
    </style>
  </defs>
  <title>S_IlluSmartObjects_99_N</title>
  <g id="circles">
    <circle id="Ellipse_22" data-name="Ellipse 22" class="cls-1" cx="49.5" cy="49.5" r="49.5"/>
  </g>
  <g id="flat_outline" data-name="flat / outline">
    <path class="cls-2" d="M61.62,73H50a1,1,0,0,1,0-2H61.62A2.382,2.382,0,0,0,64,68.62V34.35a1.982,1.982,0,0,0-.565-1.393L53.264,22.585A1.949,1.949,0,0,0,51.881,22H28.38A2.382,2.382,0,0,0,26,24.38V49a1,1,0,0,1-2,0V24.38A4.385,4.385,0,0,1,28.38,20h23.5a3.96,3.96,0,0,1,2.81,1.185L64.863,31.557A3.968,3.968,0,0,1,66,34.35V68.62A4.385,4.385,0,0,1,61.62,73Z"/>
    <path class="cls-2" d="M61,37H50a1,1,0,0,1-1-1V25a1,1,0,0,1,2,0V35H61a1,1,0,0,1,0,2Z"/>
    <path class="cls-2" d="M43.713,80H21.287A2.29,2.29,0,0,1,19,77.713V55.287A2.29,2.29,0,0,1,21.287,53H43.713A2.29,2.29,0,0,1,46,55.287V77.713A2.29,2.29,0,0,1,43.713,80ZM21.287,55a.288.288,0,0,0-.287.287V77.713a.288.288,0,0,0,.287.287H43.713A.288.288,0,0,0,44,77.713V55.287A.288.288,0,0,0,43.713,55Z"/>
    <path class="cls-2" d="M53.426,68H50a1,1,0,0,1,0-2h3.426A1.576,1.576,0,0,0,55,64.426V46.574A1.576,1.576,0,0,0,53.426,45H35.574A1.576,1.576,0,0,0,34,46.574V49a1,1,0,0,1-2,0V46.574A3.579,3.579,0,0,1,35.574,43H53.426A3.579,3.579,0,0,1,57,46.574V64.426A3.579,3.579,0,0,1,53.426,68Z"/>
    <path class="cls-2" d="M75.883,57.177a1,1,0,0,1-.707-.293l-3.939-3.939a1,1,0,1,1,1.414-1.414l3.178,3.178,7.914-9.168a1,1,0,0,1,1.514,1.307L76.64,56.831a1,1,0,0,1-.721.346Z"/>
    <path class="cls-2" d="M75.883,66.187a1,1,0,0,1-.707-.293l-3.939-3.938a1,1,0,1,1,1.414-1.414l3.178,3.177,7.914-9.168a1,1,0,0,1,1.514,1.307L76.64,65.84a1,1,0,0,1-.72.347Z"/>
  </g>
</svg>
