<svg xmlns="http://www.w3.org/2000/svg" width="99" height="99" viewBox="0 0 99 99">
  <defs>
    <style>
      .cls-1 {
        fill: #0070d1;
      }

      .cls-2 {
        fill: #fff;
      }
    </style>
  </defs>
  <title>S_IlluManipulateText_99_N</title>
  <g id="circles">
    <circle id="Ellipse_22" data-name="Ellipse 22" class="cls-1" cx="49.5" cy="49.5" r="49.5"/>
  </g>
  <g id="flat_outline" data-name="flat / outline">
    <path class="cls-2" d="M57.445,78.877a2.2,2.2,0,1,1,0-4.392h0a2.2,2.2,0,1,1,0,4.392Zm5.122-.839h0a1.97,1.97,0,0,1-1.97-1.97,2.04,2.04,0,0,1,1.394-1.885,1.642,1.642,0,0,1,.576-.085,1.97,1.97,0,1,1,0,3.94ZM51.808,77.4a2.253,2.253,0,1,1,2.252-2.253A2.253,2.253,0,0,1,51.808,77.4ZM65.8,74.424a1.758,1.758,0,0,1,0-3.515h0a1.758,1.758,0,0,1,0,3.515Zm-1.325-4.033a1.642,1.642,0,1,1,1.641-1.641A1.642,1.642,0,0,1,64.473,70.391Z"/>
    <path class="cls-2" d="M57.781,82.567h-.01a17.909,17.909,0,0,1-11.062-4.021,6.25,6.25,0,0,1-2.429-4.481,4.721,4.721,0,0,1,1.535-3.717,5.31,5.31,0,0,1,3.828-1.514,14.278,14.278,0,0,1,3.884.739c.415.119.827.238,1.232.34a1.269,1.269,0,0,0,1.478-.517,1.509,1.509,0,0,0-.549-2.224,2.4,2.4,0,0,1-1.314-3.051c.617-1.994,3.964-2.212,5.373-2.212a16.022,16.022,0,0,1,2.5.2c3.959.631,9.532,4.191,9.532,10.13C71.775,77.933,65.5,82.567,57.781,82.567ZM49.643,70.334a3.823,3.823,0,0,0-2.794,1.1A3.258,3.258,0,0,0,45.779,74a4.742,4.742,0,0,0,1.87,3.379,16.414,16.414,0,0,0,10.137,3.69c6.887,0,12.489-3.962,12.489-8.829,0-5.056-4.835-8.1-8.267-8.649a14.594,14.594,0,0,0-2.261-.18c-2.352,0-3.768.6-3.951,1.19a.932.932,0,0,0,.511,1.208,3.007,3.007,0,0,1,1.165,4.441,2.852,2.852,0,0,1-3.106,1.112c-.394-.1-.822-.222-1.253-.346A13.222,13.222,0,0,0,49.643,70.334Z"/>
    <path class="cls-2" d="M45.192,60.656H28.828a1,1,0,0,1-1-1V54.2a1,1,0,0,1,1-1h4.455V34.291H28.01v4.455a1,1,0,0,1-1,1H21.555a1,1,0,0,1-1-1V27.836a1,1,0,0,1,1-1H52.466a1,1,0,0,1,1,1v10.91a1,1,0,0,1-1,1H47.011a1,1,0,0,1-1-1V34.291H40.737V53.2h4.455a1,1,0,0,1,1,1v5.455A1,1,0,0,1,45.192,60.656Zm-15.364-2H44.192V55.2H39.737a1,1,0,0,1-1-1V33.291a1,1,0,0,1,1-1h7.274a1,1,0,0,1,1,1v4.455h3.455v-8.91H22.555v8.91H26.01V33.291a1,1,0,0,1,1-1h7.273a1,1,0,0,1,1,1V54.2a1,1,0,0,1-1,1H29.828Z"/>
    <path class="cls-2" d="M48.63,64.4a.994.994,0,0,1,1-.99h0a.994.994,0,0,1,1,.99h0a1,1,0,0,1-1,1.01h0A1,1,0,0,1,48.63,64.4Zm-4,0a.994.994,0,0,1,1-.99h0a.994.994,0,0,1,1,.99h0a1,1,0,0,1-1,1.01h0A1,1,0,0,1,44.63,64.4Zm-4,0a.994.994,0,0,1,1-.99h0a.994.994,0,0,1,1,.99h0a1,1,0,0,1-1,1.01h0A1,1,0,0,1,40.63,64.4Zm-4,0a.994.994,0,0,1,1-.99h0a.994.994,0,0,1,1,.99h0a1,1,0,0,1-1,1.01h0A1,1,0,0,1,36.63,64.4Zm-4,0a.994.994,0,0,1,1-.99h0a.994.994,0,0,1,1,.99h0a1,1,0,0,1-1,1.01h0A1,1,0,0,1,32.63,64.4Zm-4,0a.994.994,0,0,1,1-.99h0a.994.994,0,0,1,1,.99h0a1,1,0,0,1-1,1.01h0A1,1,0,0,1,28.63,64.4Zm-4,0a.994.994,0,0,1,1-.99h0a.994.994,0,0,1,1,.99h0a1,1,0,0,1-1,1.01h0A1,1,0,0,1,24.63,64.4Zm-4,0a.994.994,0,0,1,1-.99h0a.994.994,0,0,1,1,.99h0a1,1,0,0,1-1,1.01h0A1,1,0,0,1,20.63,64.4Z"/>
    <path class="cls-2" d="M51.85,23.5a1,1,0,0,1,1-1h0a1,1,0,0,1,1,1h0a1,1,0,0,1-1,1h0A1,1,0,0,1,51.85,23.5Zm-4,0a1,1,0,0,1,1-1h0a1,1,0,0,1,1,1h0a1,1,0,0,1-1,1h0A1,1,0,0,1,47.85,23.5Zm-4,0a1,1,0,0,1,1-1h0a1,1,0,0,1,1,1h0a1,1,0,0,1-1,1h0A1,1,0,0,1,43.85,23.5Zm-4,0a1,1,0,0,1,1-1h0a1,1,0,0,1,1,1h0a1,1,0,0,1-1,1h0A1,1,0,0,1,39.85,23.5Zm-4,0a1,1,0,0,1,1-1h0a1,1,0,0,1,1,1h0a1,1,0,0,1-1,1h0A1,1,0,0,1,35.85,23.5Zm-4,0a1,1,0,0,1,1-1h0a1,1,0,0,1,1,1h0a1,1,0,0,1-1,1h0A1,1,0,0,1,31.85,23.5Zm-4,0a1,1,0,0,1,1-1h0a1,1,0,0,1,1,1h0a1,1,0,0,1-1,1h0A1,1,0,0,1,27.85,23.5Zm-4,0a1,1,0,0,1,1-1h0a1,1,0,0,1,1,1h0a1,1,0,0,1-1,1h0A1,1,0,0,1,23.85,23.5Zm-4,0a1,1,0,0,1,1-1h0a1,1,0,0,1,1,1h0a1,1,0,0,1-1,1h0A1,1,0,0,1,19.85,23.5Z"/>
    <path class="cls-2" d="M26.99,43.65a1,1,0,0,1,1-1h0a1,1,0,0,1,1,1h0a1,1,0,0,1-1,1h0A1,1,0,0,1,26.99,43.65Zm-4,0a1,1,0,0,1,1-1h0a1,1,0,0,1,1,1h0a1,1,0,0,1-1,1h0A1,1,0,0,1,22.99,43.65Zm-4,0a1,1,0,0,1,1-1h0a1,1,0,0,1,1,1h0a1,1,0,0,1-1,1h0A1,1,0,0,1,18.99,43.65Z"/>
    <path class="cls-2" d="M51.04,43.65a1,1,0,0,1,1-1h0a1,1,0,0,1,1,1h0a1,1,0,0,1-1,1h0A1,1,0,0,1,51.04,43.65Zm-4,0a1,1,0,0,1,1-1h0a1,1,0,0,1,1,1h0a1,1,0,0,1-1,1h0A1,1,0,0,1,47.04,43.65Zm-4,0a1,1,0,0,1,1.01-1h0a.994.994,0,0,1,.99,1h0a.994.994,0,0,1-.99,1h0A1,1,0,0,1,43.04,43.65Z"/>
    <path class="cls-2" d="M80.964,38.25H63.036a1.788,1.788,0,0,0-1.786,1.786V52.964a1.788,1.788,0,0,0,1.786,1.786H68a.75.75,0,0,0,0-1.5H63.036a.286.286,0,0,1-.286-.286V49.75H68a.75.75,0,0,0,0-1.5H62.75v-3.5h18.5V48.3a.742.742,0,0,0-.25-.05H75a.75.75,0,0,0,0,1.5h6a.742.742,0,0,0,.25-.05v3.264a.286.286,0,0,1-.286.286H80a.75.75,0,0,0,0,1.5h.964a1.788,1.788,0,0,0,1.786-1.786V40.036A1.788,1.788,0,0,0,80.964,38.25Zm-18.214,5V40.036a.286.286,0,0,1,.286-.286H80.964a.286.286,0,0,1,.286.286V43.25Z"/>
    <path id="Path_160" data-name="Path 160" class="cls-2" d="M70.358,48.429V58.7a.311.311,0,0,0,.554.2L73.6,55.583l4.357.628a.311.311,0,0,0,.268-.527L70.892,48.21a.309.309,0,0,0-.439-.007.315.315,0,0,0-.095.226Z"/>
  </g>
</svg>
